<svg xmlns="http://www.w3.org/2000/svg" viewBox="0 0 520 520" width="520" height="520" font-family="Heebo, Arial, sans-serif">
<rect width="520" height="520" fill="#ffffff"/>
<polygon points="46.0,207.1 253.1,207.1 253.1,46.0 46.0,46.0" fill="#e6e7f6" stroke="#1c1b18" stroke-width="2"/>
<circle cx="149.5" cy="126.5" r="23.0" fill="#ffffff" stroke="#1c1b18" stroke-width="2"/>
<text x="149.5" y="98.5" fill="#585ba8" font-size="13" text-anchor="middle">⌀10</text>
<line x1="46.0" y1="229.1" x2="253.1" y2="229.1" stroke="#585ba8" stroke-width="1.4"/><line x1="46.0" y1="225.1" x2="46.0" y2="233.1" stroke="#585ba8" stroke-width="1.4"/><line x1="253.1" y1="225.1" x2="253.1" y2="233.1" stroke="#585ba8" stroke-width="1.4"/><text x="149.5" y="244.1" fill="#585ba8" font-size="14" text-anchor="middle">45</text>
<line x1="275.1" y1="207.1" x2="275.1" y2="46.0" stroke="#585ba8" stroke-width="1.4"/><line x1="271.1" y1="207.1" x2="279.1" y2="207.1" stroke="#585ba8" stroke-width="1.4"/><line x1="271.1" y1="46.0" x2="279.1" y2="46.0" stroke="#585ba8" stroke-width="1.4"/><text x="281.1" y="126.5" fill="#585ba8" font-size="14">35</text>
<rect x="46.0" y="269.1" width="207.1" height="184.1" fill="#e6e7f6" stroke="#1c1b18" stroke-width="2"/>
<line x1="275.1" y1="269.1" x2="275.1" y2="453.2" stroke="#585ba8" stroke-width="1.4"/><line x1="271.1" y1="269.1" x2="279.1" y2="269.1" stroke="#585ba8" stroke-width="1.4"/><line x1="271.1" y1="453.2" x2="279.1" y2="453.2" stroke="#585ba8" stroke-width="1.4"/><text x="281.1" y="361.1" fill="#585ba8" font-size="14">40</text>
<text x="46.0" y="473.2" fill="#6b675f" font-size="12">מבט צד · גובה 40 מ"מ</text>
<text x="46.0" y="30" fill="#6b675f" font-size="12">מבט על · כל המידות במ"מ</text>
</svg>