<svg xmlns="http://www.w3.org/2000/svg" viewBox="0 0 520 520" width="520" height="520" font-family="Heebo, Arial, sans-serif">
<rect width="520" height="520" fill="#ffffff"/>
<polygon points="46.0,224.3 474.0,224.3 474.0,46.0 46.0,46.0" fill="#e6e7f6" stroke="#1c1b18" stroke-width="2"/>
<circle cx="174.4" cy="135.2" r="28.5" fill="#ffffff" stroke="#1c1b18" stroke-width="2"/>
<text x="174.4" y="101.6" fill="#585ba8" font-size="13" text-anchor="middle">⌀8</text>
<circle cx="345.6" cy="135.2" r="28.5" fill="#ffffff" stroke="#1c1b18" stroke-width="2"/>
<text x="345.6" y="101.6" fill="#585ba8" font-size="13" text-anchor="middle">⌀8</text>
<line x1="46.0" y1="246.3" x2="474.0" y2="246.3" stroke="#585ba8" stroke-width="1.4"/><line x1="46.0" y1="242.3" x2="46.0" y2="250.3" stroke="#585ba8" stroke-width="1.4"/><line x1="474.0" y1="242.3" x2="474.0" y2="250.3" stroke="#585ba8" stroke-width="1.4"/><text x="260.0" y="261.3" fill="#585ba8" font-size="14" text-anchor="middle">60</text>
<line x1="496.0" y1="224.3" x2="496.0" y2="46.0" stroke="#585ba8" stroke-width="1.4"/><line x1="492.0" y1="224.3" x2="500.0" y2="224.3" stroke="#585ba8" stroke-width="1.4"/><line x1="492.0" y1="46.0" x2="500.0" y2="46.0" stroke="#585ba8" stroke-width="1.4"/><text x="502.0" y="135.2" fill="#585ba8" font-size="14">25</text>
<line x1="174.4" y1="270.3" x2="345.6" y2="270.3" stroke="#585ba8" stroke-width="1.4"/><line x1="174.4" y1="266.3" x2="174.4" y2="274.3" stroke="#585ba8" stroke-width="1.4"/><line x1="345.6" y1="266.3" x2="345.6" y2="274.3" stroke="#585ba8" stroke-width="1.4"/><text x="260.0" y="285.3" fill="#585ba8" font-size="14" text-anchor="middle">24</text>
<rect x="46.0" y="310.3" width="428.0" height="42.8" fill="#e6e7f6" stroke="#1c1b18" stroke-width="2"/>
<line x1="496.0" y1="310.3" x2="496.0" y2="353.1" stroke="#585ba8" stroke-width="1.4"/><line x1="492.0" y1="310.3" x2="500.0" y2="310.3" stroke="#585ba8" stroke-width="1.4"/><line x1="492.0" y1="353.1" x2="500.0" y2="353.1" stroke="#585ba8" stroke-width="1.4"/><text x="502.0" y="331.7" fill="#585ba8" font-size="14">6</text>
<text x="46.0" y="373.1" fill="#6b675f" font-size="12">מבט צד · גובה 6 מ"מ</text>
<text x="46.0" y="30" fill="#6b675f" font-size="12">מבט על · כל המידות במ"מ</text>
</svg>